<?xml version="1.0" standalone="no"?><!DOCTYPE svg PUBLIC "-//W3C//DTD SVG 1.1//EN" "http://www.w3.org/Graphics/SVG/1.1/DTD/svg11.dtd"><svg t="1775701735482" class="icon" viewBox="0 0 1024 1024" version="1.1" xmlns="http://www.w3.org/2000/svg" p-id="5550" xmlns:xlink="http://www.w3.org/1999/xlink" width="200" height="200"><path d="M396.93131 133.850141a18.94299 18.94299 0 0 1-1.422147 1.877234 365.662276 365.662276 0 0 0-76.966561 123.612962 18.772332 18.772332 0 1 1-35.155459-13.083746A402.865625 402.865625 0 0 1 340.728085 142.269248a356.617425 356.617425 0 0 0-94.202976 36.577605 18.772332 18.772332 0 0 1-18.374131-32.709367 394.332747 394.332747 0 0 1 255.13306-45.906885C426.170639 50.000391 349.374735 27.246049 273.261461 42.036371c-91.586227 17.805273-163.945034 86.4665-190.283185 176.801238 62.119354 77.364763 158.711535 121.621958 245.007378 104.84063 92.041313-17.919044 164.400121-87.092244 190.510728-177.483867a357.982685 357.982685 0 0 0-121.565072-12.344231zM123.367233 725.121718a370.27003 370.27003 0 0 0 118.891437 109.960358 18.772332 18.772332 0 1 1-18.772332 32.424937 410.602101 410.602101 0 0 1-178.337155-211.729152c-19.682506 80.948572 0.568859 166.675555 58.023572 228.339822 63.655272 68.263026 160.190568 93.17903 250.752848 67.694167 32.766252-93.747889 19.056761-199.100492-40.957815-263.381509-61.436723-65.930706-153.478037-91.301797-240.85471-70.25403 6.371216 21.389081 14.619665 42.095533 24.517803 61.834924 46.646401 13.766377 95.625122 18.032816 143.978099 12.62866a18.772332 18.772332 0 0 1 4.152668 37.317121c-40.559615 4.550868-81.460544 2.844293-121.394415-4.835298z m602.76252-8.532878a365.207189 365.207189 0 0 0-29.92196-135.843422 18.772332 18.772332 0 1 1 34.472828-14.904094c12.62866 29.239329 21.730397 59.787034 27.134553 91.017368 19.341191-45.906885 29.92196-96.307752 29.921959-148.699625a18.772332 18.772332 0 0 1 37.544665 0 419.021208 419.021208 0 0 1-62.346897 220.432688 18.772332 18.772332 0 0 1-5.290385 8.362221c-11.775372 18.146588-24.97289 35.26923-39.421897 51.254155 77.53542-8.760422 147.39125-52.221215 187.097577-120.996213 46.646401-80.777914 42.26619-180.385046-8.589764-259.570157-99.208931-3.98201-195.914885 39.990756-239.887651 116.160916-47.329031 82.029403-42.038647 183.172453 10.580769 262.585107 22.356141-20.763337 42.095533-44.200309 58.706203-69.798944zM27.287024 593.772279A423.060103 423.060103 0 0 1 20.915808 463.674328a18.772332 18.772332 0 0 1 37.317121 3.98201 389.781878 389.781878 0 0 0 4.94907 114.169911c100.289762-24.233374 206.324996 4.949069 277.261657 81.062344 72.131264 77.364763 86.921586 201.660356 46.020656 309.629708a18.203474 18.203474 0 0 1-6.371215 8.020906 18.431017 18.431017 0 0 1-7.736477 5.119727c-106.149005 33.164453-221.285976 4.892184-296.602847-75.942617-75.032443-80.379713-94.999378-196.142428-55.748138-298.821396a18.203474 18.203474 0 0 1 7.281389-17.065756zM549.897374 116.670613a399.22493 399.22493 0 0 1 121.906387 67.580396 18.772332 18.772332 0 1 1-23.60763 29.125558 362.533554 362.533554 0 0 0-94.14609-55.17928c-30.320161 102.906512-113.202851 181.807193-218.89677 202.342986-103.816685 20.194479-217.076423-33.164453-286.989138-125.091995a18.203474 18.203474 0 0 1-3.413151-9.670595 18.203474 18.203474 0 0 1-0.227544-9.272394C72.681936 108.934137 157.612518 26.27899 266.093843 5.231223c107.912467-21.047766 216.735107 23.323201 283.007129 111.041189l0.796402 0.398201z m87.888646 694.462518a18.317245 18.317245 0 0 1-0.341315-2.047891c-61.493609-91.244911-68.149254-208.771088-13.083747-304.054895 52.903845-91.586227 167.471957-142.04398 282.665813-134.535047 3.413151 0.341315 6.769417 1.592804 9.499938 3.754466 2.844293 1.308375 5.34727 3.356265 7.167618 5.916129 62.745098 91.81377 69.400743 210.136348 14.107692 305.875243-53.358932 92.382628-153.762466 145.05893-259.968357 141.190692a402.182995 402.182995 0 0 1-92.155085 58.194229 18.772332 18.772332 0 1 1-15.586725-34.131513 364.069472 364.069472 0 0 0 67.694168-40.161413zM56.128153 358.094182a18.772332 18.772332 0 1 1 37.544664 0 18.772332 18.772332 0 0 1-37.544664 0z m694.064316-56.316997a18.772332 18.772332 0 1 1 37.544664 0 18.772332 18.772332 0 0 1-37.544664 0zM468.83503 883.435052a18.772332 18.772332 0 1 1 37.544665 0 18.772332 18.772332 0 0 1-37.544665 0z m-229.249995-445.985103h83.963522v16.269355H258.58491v32.311165h60.981637v16.326241H258.641796v35.212344h67.694168v16.269355H239.528149V437.393063z m155.241498-2.275434c13.652605 0 25.086662 3.526923 33.90397 10.751427 8.475992 6.826303 13.538833 16.269355 15.359181 28.044726h-18.601675a27.134553 27.134553 0 0 0-10.922084-16.838213 34.643486 34.643486 0 0 0-20.080707-5.176613c-12.230459 0-21.389081 4.038896-27.58964 12.514888-5.688585 7.508933-8.475992 17.97593-8.475992 31.287221 0 13.766377 2.844293 24.347146 8.362221 31.685421 6.029901 7.850248 15.472953 11.94603 28.215384 11.946029a33.278225 33.278225 0 0 0 20.365136-6.086786 36.008746 36.008746 0 0 0 11.718486-19.910049h18.601675a51.367927 51.367927 0 0 1-18.26036 31.96985 50.059552 50.059552 0 0 1-32.311166 10.808313c-19.341191 0-33.90397-6.257444-43.347021-18.26036-8.305335-10.466997-12.401116-24.460918-12.401116-42.095532 0-17.2933 4.209553-31.457878 12.856203-42.266191 9.784367-12.401116 24.005831-18.431017 42.607505-18.431017z m120.484241 0c17.805273 0 31.856079 5.688585 42.095533 17.236414 9.784367 10.922084 14.676551 25.484863 14.67655 43.403908s-4.892184 32.25428-14.67655 43.233249c-10.239454 11.377171-24.29026 17.065756-42.095533 17.065757-17.919044 0-31.96985-5.859243-42.095533-17.236414-9.727481-11.092742-14.505893-25.484863-14.505893-43.062592 0-17.805273 4.778412-32.140508 14.562779-43.23325 10.068796-11.718486 24.119603-17.463957 42.095533-17.463958z m0 16.781327a34.131513 34.131513 0 0 0-28.044727 12.230459c-6.371216 7.793362-9.443052 18.203474-9.443051 31.628536 0 13.197518 3.071836 23.664516 9.443051 31.457877 6.541873 7.96402 15.984925 12.059801 28.044727 12.059802 12.059801 0 21.389081-3.868238 27.874069-11.547829 6.371216-7.67959 9.670595-18.260359 9.670595-31.96985 0-13.652605-3.29938-24.460918-9.670595-32.311166-6.484987-7.793362-15.814268-11.547829-27.874069-11.547829z" fill="#00C203" p-id="5551"></path></svg>