<?xml version="1.0" standalone="no"?><!DOCTYPE svg PUBLIC "-//W3C//DTD SVG 1.1//EN" "http://www.w3.org/Graphics/SVG/1.1/DTD/svg11.dtd"><svg t="1775701662824" class="icon" viewBox="0 0 1024 1024" version="1.1" xmlns="http://www.w3.org/2000/svg" p-id="4307" xmlns:xlink="http://www.w3.org/1999/xlink" width="200" height="200"><path d="M726.944 220.192a82.24 82.24 0 0 1-82.144 82.08 81.984 81.984 0 0 1-82.016-82.08C563.104 174.08 645.024 0 645.024 0s81.92 174.048 81.92 220.192zM486.368 409.6a102.464 102.464 0 0 1-204.8 5.344v-5.344c0-56.352 102.336-271.296 102.336-271.296S486.4 348.192 486.4 409.6z m486.208 614.272H614.08c-30.784 0-51.2-20.48-51.2-40.96v-168.896c0-25.632 20.416-41.024 51.2-41.024h286.528c30.784 0 41.024 20.576 51.296 41.024l71.36 168.896c0 20.48-20.48 40.96-51.2 40.96h0.512z m-102.4-296.896H614.08c-30.784 0-51.2-20.48-51.2-40.96v-87.008c0-25.568 20.416-40.96 51.2-40.96h220c30.72 0 41.024 20.448 51.2 40.96l35.712 86.976c0 20.544-20.544 40.96-51.168 40.96h0.352z m-409.472 296.896H51.136c-30.624 0-51.136-20.48-51.136-40.96l133.088-378.848c4.8-24.256 26.432-41.6 51.2-40.736h276.416c30.72 0 51.136 20.384 51.136 40.896V983.04c0 20.448-20.416 40.96-51.136 40.96v-0.16z" fill="#333333" p-id="4308"></path></svg>