<?xml version="1.0" standalone="no"?><!DOCTYPE svg PUBLIC "-//W3C//DTD SVG 1.1//EN" "http://www.w3.org/Graphics/SVG/1.1/DTD/svg11.dtd"><svg t="1775701633928" class="icon" viewBox="0 0 1024 1024" version="1.1" xmlns="http://www.w3.org/2000/svg" p-id="4127" xmlns:xlink="http://www.w3.org/1999/xlink" width="200" height="200"><path d="M512 178.538667c14.08 0 25.408-11.349333 25.408-25.408v-85.12a25.386667 25.386667 0 0 0-50.773333 0v85.098666c0 14.08 11.370667 25.429333 25.386666 25.429334zM278.442667 247.893333a25.472 25.472 0 0 0 35.861333 2.453334 25.450667 25.450667 0 0 0 2.453333-35.861334L260.821333 150.4a25.408 25.408 0 1 0-38.314666 33.429333l55.936 64.064zM103.466667 397.866667l82.709333 22.144a25.386667 25.386667 0 0 0 13.162667-49.045334l-82.752-22.144a25.386667 25.386667 0 0 0-31.104 17.984 25.28 25.28 0 0 0 17.984 31.061334zM668.010667 668.416c42.538667-39.488 95.445333-88.576 95.445333-194.88 0-136.725333-111.232-247.957333-247.936-247.957333-137.365333 0-249.173333 111.232-249.173333 247.957333 0 106.368 53.333333 155.498667 96.298666 194.965333 30.634667 28.181333 48.042667 45.461333 49.429334 71.914667l3.434666 73.130667h198.208l5.205334-73.024c1.386667-26.56 18.666667-43.882667 49.088-72.106667z m-99.754667 68.992l-1.813333 25.344h-102.4l-1.216-24.810667c-2.496-48.576-34.666667-78.186667-65.770667-106.858666-39.253333-36.053333-79.872-73.472-79.872-157.546667 0-108.693333 88.96-197.141333 198.336-197.141333 108.672 0 197.12 88.448 197.12 197.141333 0 84.117333-40.277333 121.472-79.189333 157.696-30.848 28.586667-62.72 58.154667-65.194667 106.176zM591.701333 847.274667h-153.578666c-10.666667 0-19.264 9.770667-19.264 21.824 0 12.010667 8.597333 21.717333 19.264 21.717333h153.578666c10.666667 0 19.242667-9.706667 19.242667-21.717333 0.021333-12.053333-8.576-21.824-19.242667-21.824zM579.776 937.728h-129.728c-12.309333 0-22.250667 9.813333-22.250667 21.845333 0 12.010667 9.941333 21.76 22.250667 21.76h129.728c12.288 0 22.272-9.749333 22.272-21.76 0-12.053333-9.984-21.845333-22.272-21.845333zM726.378667 256.597333c7.125333 0 14.186667-2.965333 19.157333-8.704l55.936-64.128a25.493333 25.493333 0 0 0-2.410667-35.882666 25.493333 25.493333 0 0 0-35.861333 2.496l-55.957333 64.106666a25.450667 25.450667 0 0 0 19.136 42.112zM806.762667 402.090667a25.365333 25.365333 0 0 0 31.082666 17.962666l82.773334-22.144a25.386667 25.386667 0 0 0-13.162667-49.088l-82.773333 22.186667a25.301333 25.301333 0 0 0-17.92 31.082667z" fill="#0082FF" p-id="4128"></path></svg>