<?xml version="1.0" standalone="no"?><!DOCTYPE svg PUBLIC "-//W3C//DTD SVG 1.1//EN" "http://www.w3.org/Graphics/SVG/1.1/DTD/svg11.dtd"><svg t="1775701696486" class="icon" viewBox="0 0 1024 1024" version="1.1" xmlns="http://www.w3.org/2000/svg" p-id="4532" xmlns:xlink="http://www.w3.org/1999/xlink" width="200" height="200"><path d="M491.52 0a240.2304 240.2304 0 0 0-240.2816 240.2816h480.5632C731.8016 107.5712 624.2816 0 491.52 0zM368.64 151.7056a151.6032 151.6032 0 0 1 122.88-62.976c50.5344 0 95.3856 24.9344 122.88 62.976H368.64z m608.5632 469.504V532.48h-92.3136a488.192 488.192 0 0 0-20.6336-102.5536l84.3264-48.7424-44.288-76.8-74.496 42.9056a453.376 453.376 0 0 0-41.1136-63.1296H188.416a453.376 453.376 0 0 0-41.1136 63.1296l-74.2912-42.9056-44.288 76.8 84.2752 48.7424a486.4 486.4 0 0 0-20.6336 102.5536H0v88.7296h92.16c3.072 35.6864 10.24 70.0416 20.48 102.7072l-83.8656 48.4352 44.288 76.8 74.0864-42.752C216.7808 936.4992 343.3984 1024 488.7552 1024c145.2032 0 271.9744-87.3472 341.6064-217.6l74.0352 42.8032 44.288-76.8-83.968-48.4864c10.0864-32.768 17.2544-67.0208 20.48-102.7072h92.0064z m-444.3136 310.0672V509.0816H444.16v422.1952c-149.76-25.088-265.3184-174.0288-265.3184-353.792 0-73.3696 19.6608-144.5376 56.064-204.4416h507.392a394.7008 394.7008 0 0 1 56.064 204.4416c-0.1024 179.7632-115.712 328.704-265.472 353.792z" fill="#FF607F" p-id="4533"></path></svg>